PathFileType	4	(X/Y/Z)	c:/Users/goper/Files/vsCode/490R/osim_files/C12/C12_SSWS_03.trc
DataRate	CameraRate	NumFrames	NumMarkers	Units                	OrigDataRate	OrigDataStartFrame	OrigNumFrames
120.00	120.00	7	36	mm	120.0	672	1343
                Frame#	Time	LPSIS			LASIS			LTH1			LTH2			LTH3			LTH4			LLFE			LMFE			LSH1			LSH2			LSH3			LSH4			LLMAL			LMMAL			LCAL			LMTP5			LTOE			LMTP1			RPSIS			RASIS			RTH1			RTH2			RTH3			RTH4			RLFE			RMFE			RSH1			RSH2			RSH3			RSH4			RLMAL			RMMAL			RCAL			RMTP1			RTOE			RMTP5		
		X1	Y1	Z1	X2	Y2	Z2	X3	Y3	Z3	X4	Y4	Z4	X5	Y5	Z5	X6	Y6	Z6	X7	Y7	Z7	X8	Y8	Z8	X9	Y9	Z9	X10	Y10	Z10	X11	Y11	Z11	X12	Y12	Z12	X13	Y13	Z13	X14	Y14	Z14	X15	Y15	Z15	X16	Y16	Z16	X17	Y17	Z17	X18	Y18	Z18	X19	Y19	Z19	X20	Y20	Z20	X21	Y21	Z21	X22	Y22	Z22	X23	Y23	Z23	X24	Y24	Z24	X25	Y25	Z25	X26	Y26	Z26	X27	Y27	Z27	X28	Y28	Z28	X29	Y29	Z29	X30	Y30	Z30	X31	Y31	Z31	X32	Y32	Z32	X33	Y33	Z33	X34	Y34	Z34	X35	Y35	Z35	X36	Y36	Z36

672	5.59167	897.18341	1033.14661	333.97000	730.53235	986.99792	425.87802	907.91119	736.51740	450.13687	916.88928	694.21692	448.40509	849.62213	721.14563	460.83191	864.88580	679.16547	455.89334	941.96747	514.27216	411.67184	934.12781	507.13428	285.64471	1033.05090	448.97333	426.11758	1051.45178	404.66476	431.25122	980.48010	419.44946	418.42484	1007.48193	380.13855	421.86954	1168.93591	134.74211	379.97000	1161.59399	135.27788	300.60950	1242.79163	127.06974	344.07999	1065.29163	35.88435	401.71735	1010.99329	61.48395	329.06119	1045.68176	34.98265	289.99207	898.07782	1019.44922	220.74663	706.46436	993.48572	168.21606	702.24017	712.19409	105.52937	679.98181	672.64142	113.63066	646.29706	737.51044	118.28168	630.98962	692.22205	123.23884	597.22601	517.92102	161.43990	614.29810	515.51892	297.43192	613.88757	405.33472	139.72437	592.81775	367.90411	133.90927	555.17474	426.83298	146.51479	544.69708	387.12381	138.58302	446.36584	109.55858	177.59178	438.37869	129.97070	259.33240	488.99606	43.18008	220.42561	294.65720	133.90433	260.77747	272.11526	173.94618	227.00450	286.10550	128.96515	154.75800
673	5.60000	884.25916	1031.24243	333.16016	717.78278	985.22876	424.78168	895.56714	734.68085	449.72729	904.15784	691.96344	447.97430	837.27112	719.26746	460.28723	852.11444	677.68384	455.69043	930.19006	512.89679	411.63031	921.79626	505.26205	285.82175	1022.62469	449.38116	426.09634	1041.98474	405.53363	431.22119	970.67047	418.61133	418.42627	998.26447	379.86856	421.76450	1165.57764	138.21092	380.20255	1157.36206	139.92497	302.10016	1239.23267	132.20294	344.30743	1064.97986	36.00115	401.73172	1010.81659	61.41973	328.95752	1045.07043	34.90945	290.07990	883.45844	1018.05023	220.20544	693.79425	992.63922	167.03751	685.80975	712.16266	105.35880	662.96399	673.01447	113.86408	630.49353	738.53973	118.48698	614.34998	693.44989	123.85150	580.59265	518.20056	162.83409	598.27118	516.10645	297.80869	600.56360	405.03061	140.70636	580.44757	366.73422	134.48753	541.56079	425.57352	148.24060	531.75513	384.72067	139.76312	442.93304	104.97396	178.71788	434.71555	124.64471	260.45602	487.32693	40.95004	220.67726	290.45273	124.86826	262.52463	267.04599	164.19722	229.22800	281.70190	120.25904	156.45105
674	5.60833	871.05505	1029.39990	332.41907	704.44659	983.48846	423.94379	882.74628	732.87213	449.21869	891.65802	690.45374	447.58554	824.45850	717.62402	459.82812	838.73059	676.45685	455.75214	917.56866	511.42087	411.71155	908.83691	503.51373	286.08813	1011.26105	449.58035	425.97522	1031.82996	406.32025	431.15118	960.61646	417.60150	418.64294	989.15033	379.74747	422.02386	1161.76379	141.98759	380.47998	1153.39001	143.38393	302.30084	1235.81311	138.23680	344.40234	1064.57178	36.16459	401.84583	1010.50647	61.28317	328.87549	1044.48767	34.89056	290.07471	869.70770	1016.99432	219.43256	679.54968	991.82776	165.92261	669.62604	711.93140	105.26895	646.41925	673.14557	114.16957	614.76874	739.20728	118.75039	597.97211	694.35718	124.57008	564.76056	517.91858	164.11609	582.23151	516.45850	298.07755	587.52356	404.22327	140.95517	568.65125	365.39682	135.03397	528.62720	423.17471	149.23701	519.79608	382.01184	141.05872	438.15747	101.94443	179.69937	428.95300	120.95272	261.60913	484.59189	40.48400	221.21727	284.81076	116.54778	263.82809	259.59494	155.34601	230.75586	275.95862	112.78223	157.64603
675	5.61667	857.73010	1027.74500	331.69498	690.84045	981.83661	423.07990	869.62372	731.31970	448.60968	878.53674	688.91144	446.99023	811.61450	716.25500	459.56100	824.95447	675.17944	455.42831	905.22205	510.20416	411.82312	895.10901	501.70132	286.41806	999.89154	450.24298	425.82330	1021.72162	407.61163	431.18396	950.11340	416.96512	419.09457	979.26660	379.74329	422.32434	1157.89441	146.36945	381.05356	1148.85352	147.25069	302.69983	1230.97925	144.71725	344.72159	1063.73633	36.31997	401.91492	1010.05804	61.34639	328.89056	1043.89819	34.88795	290.12756	855.88147	1016.24707	218.48528	665.54102	991.14410	165.16315	653.91241	711.63562	105.31512	630.32941	673.17212	114.79436	599.22852	739.42883	119.15504	582.32520	694.89899	125.39951	550.08325	517.50421	165.38884	566.86200	516.41150	298.12869	575.51178	403.73749	140.69374	557.04736	363.85550	136.27943	515.51172	420.58218	151.63715	507.97382	379.73581	142.95944	430.56735	100.66089	180.70175	420.88882	118.49155	262.88474	481.48605	41.95171	221.95862	278.18988	106.51925	263.41928	251.31209	146.32060	232.04230	270.21298	104.57632	158.20766
676	5.62500	844.25763	1026.35376	330.80923	676.96552	980.48358	422.30661	856.06396	729.97260	447.78110	864.97266	687.66565	446.26709	798.20862	714.82190	459.20276	811.22278	674.16290	454.98645	891.30670	508.80923	412.03308	880.84332	499.80185	286.71851	988.31195	451.23563	425.81320	1010.72559	408.94113	431.09445	939.04333	416.57315	419.63531	969.03027	380.11713	422.86279	1152.59241	150.87144	381.64526	1143.52893	151.43393	303.40588	1225.72571	152.04582	344.99850	1062.97656	36.70749	402.10757	1009.55353	61.49234	329.01056	1043.12073	34.91970	290.14413	842.09314	1015.72687	217.36125	651.53375	990.78632	164.52290	639.03796	711.53693	105.53228	615.54749	673.21100	115.37793	584.16388	739.41888	119.71392	567.41687	695.05505	126.33453	536.68451	517.22528	166.36836	552.62738	516.33081	297.98001	563.65320	402.77563	142.20503	545.41809	362.65704	138.06387	505.13419	420.06442	150.10875	496.35507	378.29697	144.53908	422.79117	99.38925	181.83409	412.49960	116.19188	264.14566	478.60059	43.93271	222.59000	272.07199	96.87207	263.13300	243.51732	136.11143	232.91582	264.33298	95.65382	158.81667
677	5.63333	830.44513	1025.17786	329.84082	662.82501	979.35645	421.51022	841.97943	728.85419	446.85965	850.75287	686.47992	445.49225	784.05194	713.95685	458.63315	796.46545	673.03357	454.41565	877.25342	507.85306	412.36710	865.88422	497.79526	287.07361	975.01447	452.12445	425.74402	999.00134	410.61090	431.25180	926.56183	416.12302	420.13275	958.00476	380.63568	423.44135	1146.92236	155.94676	382.29053	1137.43262	156.07492	304.29297	1219.40308	159.89114	345.13312	1062.10522	36.96462	402.34833	1010.84955	60.86539	328.21765	1042.35815	34.96199	290.04813	828.04395	1015.25549	216.06897	637.51477	990.72382	163.91570	625.13287	711.94745	105.83393	601.15979	673.53088	117.64102	570.14258	739.53522	119.96912	553.62769	694.90192	127.07492	525.28857	516.76459	165.41129	539.77374	516.24890	297.81461	551.36725	402.85022	143.82228	533.38898	362.68344	139.60204	492.68533	419.88773	151.03242	484.09393	378.19626	145.48820	416.89819	98.08342	182.31071	405.95880	113.99251	265.73694	476.11237	45.54798	222.88962	267.15436	88.06544	263.64145	235.95377	125.91268	233.48097	259.58371	86.99471	159.19771
678	5.64167	816.86670	1024.43701	328.66882	648.71429	978.67352	420.68576	827.34436	727.91571	445.84238	835.72357	685.27051	444.61029	769.21655	712.93481	457.88953	783.50006	671.83435	453.68655	861.80170	506.50464	413.01630	849.96729	495.43402	288.27563	961.40442	453.28833	425.99286	986.43201	412.55319	431.52975	913.53284	416.16916	420.89072	946.21344	381.49802	424.35321	1140.58350	161.15277	382.81714	1130.00159	160.88359	304.97754	1211.90845	168.32462	344.91513	1061.51697	37.49374	402.48819	1009.67566	60.72279	329.21445	1041.41223	34.96196	289.88773	814.23743	1015.05731	214.41771	623.50439	990.73492	163.38092	612.11194	712.55402	106.09986	588.56622	674.03882	118.08655	556.61194	739.53638	120.21621	541.51019	695.59735	126.47607	512.98645	516.83051	164.62033	529.14246	515.94153	297.61423	538.83093	404.58243	144.51959	521.57147	364.16739	140.04414	480.36502	421.10382	150.96118	471.75851	379.18127	145.51387	412.47052	96.93401	182.29669	401.10046	111.95507	265.81091	474.00589	46.88830	222.74396	263.57852	80.30892	263.65195	230.29488	116.87030	234.09615	255.38683	79.07715	159.90970
